<?xml version="1.0" standalone="no"?><!DOCTYPE svg PUBLIC "-//W3C//DTD SVG 1.1//EN" "http://www.w3.org/Graphics/SVG/1.1/DTD/svg11.dtd"><svg t="1544267811324" class="icon" style="" viewBox="0 0 1024 1024" version="1.1" xmlns="http://www.w3.org/2000/svg" p-id="22708" xmlns:xlink="http://www.w3.org/1999/xlink" width="48" height="48"><defs><style type="text/css"></style></defs><path d="M0 0h1024v1024H0V0z m399.36 614.4h-5.12s-5.12 0-5.12 5.12c-5.12 5.12-10.24 5.12-10.24 10.24-10.24 5.12-20.48 10.24-25.6 10.24h-15.36c-20.48 0-40.96-10.24-56.32-25.6-5.12-10.24-15.36-20.48-15.36-30.72-5.12-10.24-5.12-25.6-5.12-40.96 0-15.36 0-30.72 5.12-40.96-10.24-15.36-5.12-25.6 5.12-30.72 5.12-10.24 15.36-15.36 25.6-20.48 10.24-5.12 25.6-5.12 35.84-5.12 10.24 0 25.6 0 35.84 5.12 5.12 0 5.12 5.12 10.24 5.12l10.24 5.12 5.12 5.12H409.6l5.12-5.12 25.6-30.72c-5.12-10.24-15.36-15.36-20.48-20.48-5.12-5.12-15.36-10.24-25.6-15.36-20.48-5.12-40.96-10.24-61.44-10.24-20.48 0-46.08 5.12-66.56 10.24-20.48 10.24-35.84 20.48-51.2 30.72-10.24 15.36-20.48 35.84-30.72 51.2-10.24 20.48-10.24 40.96-10.24 61.44 0 20.48 5.12 40.96 10.24 61.44 5.12 20.48 15.36 35.84 30.72 51.2 15.36 15.36 30.72 25.6 46.08 30.72 20.48 10.24 40.96 10.24 61.44 10.24 25.6 0 46.08-5.12 66.56-10.24s35.84-15.36 46.08-30.72l-25.6-30.72c-5.12 0-5.12-5.12-10.24-5.12z m240.64-163.84l15.36-30.72c-5.12-10.24-10.24-10.24-15.36-15.36-15.36-10.24-30.72-15.36-46.08-15.36h-25.6c-15.36 0-30.72 0-46.08 10.24-15.36 0-25.6 5.12-35.84 15.36-20.48 15.36-30.72 35.84-30.72 61.44 0 15.36 0 25.6 5.12 35.84 5.12 15.36 20.48 30.72 35.84 40.96 10.24 5.12 15.36 5.12 25.6 10.24s15.36 5.12 25.6 5.12c5.12 0 15.36 5.12 20.48 10.24 5.12 5.12 10.24 5.12 15.36 10.24 5.12 5.12 5.12 10.24 5.12 15.36 0 10.24-5.12 20.48-10.24 25.6-5.12 5.12-15.36 10.24-30.72 10.24-10.24 0-15.36 0-25.6-5.12-5.12-5.12-15.36-5.12-20.48-10.24l-15.36-10.24c5.12 5.12 0 0-5.12 0s-10.24 5.12-15.36 10.24l-20.48 35.84c5.12 5.12 15.36 10.24 20.48 15.36 15.36 10.24 35.84 15.36 56.32 20.48 10.24 0 20.48 5.12 30.72 5.12 15.36 0 30.72 0 46.08-10.24 25.6-10.24 46.08-30.72 56.32-56.32 5.12-10.24 5.12-25.6 5.12-40.96 0-10.24 0-25.6-5.12-30.72-5.12-10.24-10.24-15.36-15.36-25.6-5.12-5.12-15.36-10.24-20.48-15.36-10.24-5.12-15.36-5.12-25.6-10.24s-15.36-5.12-25.6-10.24c-10.24 0-15.36-5.12-20.48-10.24-5.12-5.12-10.24-5.12-15.36-10.24-5.12-5.12-5.12-10.24-5.12-15.36 0-10.24 5.12-15.36 10.24-25.6 5.12-5.12 15.36-10.24 30.72-10.24 5.12 0 15.36 0 20.48 5.12 5.12 0 10.24 5.12 15.36 5.12 5.12 0 10.24 5.12 10.24 5.12 0 15.36 5.12 15.36 10.24 15.36h10.24c0-5.12 5.12-10.24 5.12-10.24z m230.4 0l15.36-30.72c-5.12-10.24-10.24-10.24-20.48-15.36-15.36-10.24-30.72-15.36-46.08-15.36h-25.6c-15.36 0-30.72 0-46.08 10.24-15.36 5.12-25.6 10.24-30.72 20.48-15.36 15.36-25.6 40.96-25.6 61.44 0 15.36 0 25.6 5.12 35.84 5.12 15.36 20.48 30.72 35.84 40.96 10.24 5.12 15.36 5.12 25.6 10.24s15.36 5.12 25.6 5.12c5.12 0 15.36 5.12 20.48 10.24 5.12 5.12 10.24 5.12 15.36 10.24 5.12 5.12 5.12 10.24 5.12 15.36 0 10.24-5.12 20.48-10.24 25.6-5.12 5.12-15.36 10.24-30.72 10.24-10.24 0-15.36 0-25.6-5.12-5.12-5.12-15.36-5.12-20.48-10.24l-15.36-10.24s-5.12-5.12-10.24-5.12-10.24 5.12-15.36 10.24l-20.48 35.84c5.12 5.12 15.36 10.24 20.48 15.36 15.36 10.24 35.84 15.36 56.32 20.48 10.24 0 20.48 5.12 30.72 5.12 15.36 0 30.72 0 46.08-10.24 25.6-10.24 46.08-30.72 56.32-56.32 5.12-10.24 5.12-25.6 5.12-40.96 0-10.24 0-25.6-5.12-30.72-5.12-10.24-10.24-15.36-15.36-25.6-5.12-5.12-15.36-10.24-20.48-15.36s-15.36-5.12-25.6-10.24-15.36-5.12-25.6-10.24c-10.24 0-15.36-5.12-20.48-10.24-5.12-5.12-10.24-5.12-15.36-10.24-5.12-5.12-5.12-10.24-5.12-15.36 0-10.24 5.12-15.36 10.24-25.6 5.12-5.12 15.36-10.24 30.72-10.24 5.12 0 15.36 0 20.48 5.12 5.12 0 10.24 5.12 15.36 5.12 5.12 0 10.24 5.12 10.24 5.12 0 15.36 5.12 15.36 10.24 15.36h10.24c0-5.12 0-10.24 5.12-10.24z" fill="#3D8E96" p-id="22709"></path></svg>