<?xml version="1.0" standalone="no"?><!DOCTYPE svg PUBLIC "-//W3C//DTD SVG 1.1//EN" "http://www.w3.org/Graphics/SVG/1.1/DTD/svg11.dtd"><svg t="1544270431992" class="icon" style="" viewBox="0 0 1427 1024" version="1.1" xmlns="http://www.w3.org/2000/svg" p-id="17224" xmlns:xlink="http://www.w3.org/1999/xlink" width="66.890625" height="48"><defs><style type="text/css"></style></defs><path d="M1004.630286 698.002285c0 4.446183-0.854849 8.995287-2.70137 13.339759-80.687565 189.935074-266.5167 312.657956-473.518481 312.657956-283.347294 0-513.882847-229.680704-513.882847-511.998789 0-282.320507 230.535553-512 513.882847-512 204.367006 0 390.061738 116.909668 473.108008 297.848244 7.832886 17.103032 0.376569 37.488635-16.828173 45.354213-17.170839 7.868-37.487425 0.342666-45.354214-16.825751C867.404033 169.687505 706.097921 68.409707 528.409224 68.409707c-245.620124 0-445.474351 198.998167-445.474351 443.590293 0 244.590915 199.854227 443.591504 445.474351 443.591504 179.502527 0 340.635489-106.3742 410.515149-270.964093 7.38851-17.410584 27.500465-25.514697 44.875934-18.12982 12.997094 5.544409 20.829979 18.198837 20.829979 31.504694z" fill="#ffffff" p-id="17225"></path><path d="M648.228526 742.409626c0 9.50747-3.932789 18.983457-11.665176 25.720539-14.194608 12.484911-35.810419 11.048861-48.260216-3.148169L405.790474 556.750008c-25.036417-26.919264-24.625944-69.845756 1.743601-96.968441L588.782625 261.296794c12.723445-13.957285 34.375581-14.915055 48.329233-2.190399 13.92096 12.723445 14.947747 34.37437 2.155285 48.329233L457.301779 506.674752c-1.605566 1.709698-1.675794 3.249879-0.751928 4.240341l183.196782 208.951223a34.173372 34.173372 0 0 1 8.481893 22.54331z" fill="#ffffff" p-id="17226"></path></svg>