<?xml version="1.0" standalone="no"?><!DOCTYPE svg PUBLIC "-//W3C//DTD SVG 1.1//EN" "http://www.w3.org/Graphics/SVG/1.1/DTD/svg11.dtd"><svg t="1544066798919" class="icon" style="" viewBox="0 0 1024 1024" version="1.1" xmlns="http://www.w3.org/2000/svg" p-id="1766" xmlns:xlink="http://www.w3.org/1999/xlink" width="200" height="200"><defs><style type="text/css"></style></defs><path d="M512 1024a512 512 0 1 1 512-512 512 512 0 0 1-512 512z m0-962.56a450.56 450.56 0 1 0 450.56 450.56A450.56 450.56 0 0 0 512 61.44z m3.21536 795.50464c-100.7616 16.62976-193.04448-32.64512-206.1312-110.05952s57.97888-153.6 158.74048-170.25024a225.52576 225.52576 0 0 1 106.06592 7.12704L430.36672 184.91392 432.128 184.32a30.208 30.208 0 0 1-2.048-10.24 30.72 30.72 0 0 1 61.44 0c0 0.86016-0.43008 1.59744-0.49152 2.43712l0.49152 1.39264V176.5376a79.27808 79.27808 0 0 0 81.92 25.35424v62.70976a143.95392 143.95392 0 0 1-20.48 1.6384 140.86144 140.86144 0 0 1-31.39584-3.82976L657.408 644.58752a112.64 112.64 0 0 1 16.50688 42.12736c0.34816 2.048 0.38912 4.096 0.6144 6.144L675.84 696.32h-0.90112c5.9392 73.99424-63.13984 144.71168-159.72352 160.62464z m97.93536-160.21504c-7.4752-44.2368-67.9936-71.10656-135.168-60.02688s-115.56864 55.9104-108.07296 100.1472 67.9936 71.10656 135.168 60.02688 115.46624-55.9104 108.07296-100.12672zM645.12 286.72a29.7984 29.7984 0 0 1-8.51968-1.72032L634.88 286.72a103.77216 103.77216 0 0 0-61.44-20.48v-61.44a137.07264 137.07264 0 0 1 81.92 22.528 30.28992 30.28992 0 0 1 16.65024 14.52032c1.29024 1.3312 2.64192 2.49856 3.8912 3.91168l-1.72032 1.72032A29.7984 29.7984 0 0 1 675.84 256a30.72 30.72 0 0 1-30.72 30.72z" p-id="1767"></path></svg>