<?xml version="1.0" standalone="no"?><!DOCTYPE svg PUBLIC "-//W3C//DTD SVG 1.1//EN" "http://www.w3.org/Graphics/SVG/1.1/DTD/svg11.dtd"><svg t="1544268103985" class="icon" style="" viewBox="0 0 1024 1024" version="1.1" xmlns="http://www.w3.org/2000/svg" p-id="6651" xmlns:xlink="http://www.w3.org/1999/xlink" width="48" height="48"><defs><style type="text/css"></style></defs><path d="M512 1024C229.248 1024 0 794.752 0 512S229.248 0 512 0s512 229.248 512 512-229.248 512-512 512z m128.298667-458.794667a35.968 35.968 0 0 0-36.010667 36.010667c0 50.901333-41.386667 92.288-92.288 92.288a92.416 92.416 0 0 1-92.288-92.288 35.968 35.968 0 1 0-72.021333 0A164.48 164.48 0 0 0 512 765.44a164.48 164.48 0 0 0 164.266667-164.266667 35.968 35.968 0 0 0-35.968-36.010666zM194.218667 382.421333a59.989333 59.989333 0 1 0 119.978666 0 59.989333 59.989333 0 0 0-119.978666 0z m515.285333 0a59.989333 59.989333 0 1 0 119.978667 0 59.989333 59.989333 0 0 0-119.978667 0z" p-id="6652" fill="#ffffff"></path></svg>